<svg xmlns="http://www.w3.org/2000/svg" width="251.805" height="77.13" viewBox="0 0 251.805 77.13"><g transform="translate(-54.098 -123.436)"><path d="M220.579,160.44q-.055-18.492-.109-36.985H207.5q.047,18.492.1,36.985Z" fill="#f6ffff"/><path d="M180.24,133.221c4.179.025,5.321,1.415,5.325,4.594,0,3.021-1.2,4.375-5.315,4.329-7-.077-10.493-.092-17.488-.071v6.047c6.818,4.884,10.39,7.451,16.938,12.32h16.106c-5.042-3.873-8.072-6.113-13.586-10.134l.767.014c8.876.169,15.455-3.6,15.435-12.3-.021-9.028-3.829-14.563-15.471-14.563H162.577v9.73C169.64,133.173,173.173,133.181,180.24,133.221Z" fill="#f6ffff"/><path d="M238.37,146.719c3.441,1.6,5.161,2.428,8.6,4.132,2.465,1.225,3.412,2.108,3.413,2.9v.545c0,.6-.25,1.123-2.46.906-6.915-.679-10.378-.982-17.306-1.517.008,2.758.013,4.625.019,6.758H263.19a12.417,12.417,0,0,0,.18-2.186V154.4c0-5.631-2.963-9.334-8.837-12.21-3.411-1.659-5.119-2.462-8.534-4.025-1.961-.924-2.531-1.357-2.533-2.069v-.533c0-.653.314-1.118,2.21-1.055,7.081.237,10.62.367,17.7.657v-11.7h-17.4c-10.25,0-15.432,2.29-15.413,9.5,0,1.236.005,1.854.008,3.09C230.577,140.229,232.106,143.8,238.37,146.719Z" fill="#f6ffff"/><path d="M124.765,161.476c.014-4.975.022-7.742.036-12.984,6.384-.278,9.576-.39,15.963-.561-.009,5.194-.014,7.9-.025,12.892q6.271-.191,13-.29.021-18.54.037-37.078h-12.97c-.013,5.844-.018,8.767-.029,14.611-6.383.1-9.574.169-15.956.335.016-5.978.023-8.968.042-14.946H111.9q-.058,19.407-.111,38.815Q117.94,161.834,124.765,161.476Z" fill="#f6ffff"/><path d="M79.68,165.47c6.206-.822,13.55-1.655,22.048-2.4.01-3.438.016-5.547.025-9.342-4.577.355-6.864.549-11.436.969-5.873.538-7.886-1.784-7.875-9.422.01-7.576,1.469-10.667,7.917-10.873,4.578-.147,6.867-.215,11.446-.34.011-4.242.017-6.363.03-10.606H89.117c-14.3-.543-19.508,9.888-19.549,22.777C69.539,155.648,72.527,163.161,79.68,165.47Z" fill="#f6ffff"/><path d="M278.84,160.44H166.469c-75.683,0-112.371,9.482-112.371,9.482a1063.006,1063.006,0,0,1,224.731,0h6.2V160.44Z" fill="#00c1c6"/><path d="M140.46,176.407a3.182,3.182,0,0,1,3.409,2.324h1.938c-.495-2.68-2.464-4.153-5.347-4.153a5.66,5.66,0,1,0,0,11.315c2.883,0,4.852-1.473,5.347-4.154h-1.938a3.182,3.182,0,0,1-3.409,2.325,3.829,3.829,0,1,1,0-7.657Z" fill="#f6ffff"/><path d="M159.932,174.578a5.66,5.66,0,1,0,5.812,5.658,5.45,5.45,0,0,0-5.812-5.658Zm0,9.486a3.829,3.829,0,1,1,3.8-3.828,3.57,3.57,0,0,1-3.8,3.828Z" fill="#f6ffff"/><path d="M182.667,181.073c0,1.952-.932,2.991-3.023,2.991-2.109,0-3.038-1.039-3.038-2.991V174.81h-2v6.246c0,3.085,1.565,4.837,5.037,4.837s5.022-1.752,5.022-4.837V174.81h-2Z" fill="#f6ffff"/><path d="M204.285,178.531c0-2.109-1.177-3.721-4.076-3.721h-5.936v10.851h2v-3.426H200.5l1.891,3.426h2.015l-2.109-3.8a3.341,3.341,0,0,0,1.988-3.33Zm-4.354,1.937h-3.659v-3.891h3.659c1.565,0,2.37.558,2.37,1.954S201.5,180.468,199.931,180.468Z" fill="#f6ffff"/><path d="M220.208,179.353l-1.735-.156c-1.4-.14-2.139-.5-2.139-1.458,0-1.038.883-1.518,2.7-1.518,1.627,0,2.635.388,2.9,1.612h1.845c-.171-2.774-2.448-3.255-4.65-3.255-3.4,0-4.806,1.162-4.806,3.161,0,1.938,1.288,2.868,3.736,3.1l1.752.155c1.456.14,2.123.48,2.123,1.519,0,1.256-1.069,1.736-2.913,1.736-1.583,0-2.791-.341-3.039-1.612h-1.844c.185,2.867,2.682,3.255,4.711,3.255h.015c3.643,0,5.1-1.256,5.1-3.41C223.96,180.437,222.719,179.585,220.208,179.353Z" fill="#f6ffff"/><path d="M234.179,185.661h9.145v-1.752h-7.146V181.1h6.835v-1.58h-6.835v-2.961h7.146V174.81h-9.145Z" fill="#f6ffff"/><path d="M259.618,179.353l-1.736-.156c-1.395-.14-2.138-.5-2.138-1.458,0-1.038.883-1.518,2.7-1.518,1.627,0,2.635.388,2.9,1.612h1.844c-.17-2.774-2.45-3.255-4.651-3.255-3.394,0-4.8,1.162-4.8,3.161,0,1.938,1.286,2.868,3.736,3.1l1.752.155c1.457.14,2.124.48,2.124,1.519,0,1.256-1.071,1.736-2.916,1.736-1.58,0-2.789-.341-3.036-1.612h-1.845c.185,2.867,2.68,3.255,4.712,3.255h.015c3.643,0,5.1-1.256,5.1-3.41C263.369,180.437,262.13,179.585,259.618,179.353Z" fill="#f6ffff"/><path d="M281.687,163.4a7.983,7.983,0,0,1-2.1,1.235v1.1a7.982,7.982,0,0,1,2.1,1.235,13.057,13.057,0,0,0,7.892,3.015l.3.008,9.723-1.827a22.6,22.6,0,0,0,6.3-2.187v-1.586a22.6,22.6,0,0,0-6.3-2.187l-9.723-1.827-.3.008a13.057,13.057,0,0,0-7.892,3.013Z" fill="#f6ffff"/><path d="M292.684,160.894l-.012.006.012,0Z" fill="#f6ffff"/><path d="M291.439,167.417a14.073,14.073,0,0,0,3.174-.363l4.849-1.123a.763.763,0,0,0,.332-.158h0a.766.766,0,0,0-.332-1.342l-4.848-1.123a14.076,14.076,0,0,0-3.175-.363h0v4.472Z" fill="#2d0091"/><path d="M287.57,163.529l-1.574.728a.98.98,0,0,0,0,1.849l1.574.728a6.323,6.323,0,0,0,2.652.583h0v-4.472h0a6.309,6.309,0,0,0-2.653.585Z" fill="#2d0091"/><path d="M270.588,161.74h0a33.142,33.142,0,0,0,15.71-.4l3.577-.969-9.645-2.044Z" fill="#ff4d1d"/><path d="M270.588,168.623l9.642,3.409,9.645-2.044-3.577-.969a33.142,33.142,0,0,0-15.71-.4Z" fill="#ff4d1d"/><path d="M285.462,152.413a5.681,5.681,0,0,0,4.411,6.115h0l1.559-4.815h0a2.815,2.815,0,0,0-.031-2.075l-4.7-11.41Z" fill="#ff4d1d"/><path d="M273.4,129.8l4.957,20.023a10.8,10.8,0,0,0,2.85,5.046l2.219,2.22,6.443,1.442Z" fill="#f6ffff"/><path d="M289.873,171.834h0a5.681,5.681,0,0,0-4.411,6.116l1.231,12.185,4.7-11.411a2.847,2.847,0,0,0,.214-1.082h0a2.829,2.829,0,0,0-.183-.993h0l-1.559-4.815Z" fill="#ff4d1d"/><path d="M273.4,200.565l4.957-20.023a10.8,10.8,0,0,1,2.85-5.046l2.219-2.22,6.443-1.442Z" fill="#f6ffff"/></g></svg>